<svg xmlns="http://www.w3.org/2000/svg" width="798.6" height="171.7" viewBox="0 0 798.6 171.7">
  <path id="logo" d="M.4,86C.4,38,38.1.3,86.6.3c25.6,0,49.5,11.1,64.6,29.6,2.8,3.5,3.8,5.8,3.8,8.3,0,4.8-4.3,8.8-9.3,8.8a10.4,10.4,0,0,1-8.3-4c-13.1-16.3-30.1-24.6-50.5-24.6C49.2,18.4,20.8,47.5,20.8,86c0,38.4,28.4,67.6,66.1,67.6,20.3,0,37.4-8.5,50.5-24.6a10.12,10.12,0,0,1,8.3-4c5,0,9.3,4,9.3,8.8,0,2.5-1,4.8-3.8,8.3-14.6,18.6-38.7,29.6-64.6,29.6C38.1,171.7.4,134,.4,86m190.4,75.2V13.2c0-5.8,4-10.3,9.8-10.3,5.5,0,9.8,4.5,9.8,10.3V153.9H281a8.618,8.618,0,0,1,9,8.8,8.8,8.8,0,0,1-9,8.8H201.1a10.1,10.1,0,0,1-10.3-10.3M532,81.8h37.9c20.9,0,33.4-11.6,33.4-30.4,0-18.6-12.8-30.6-33.4-30.6H532Zm105.5,81.1a9,9,0,0,1-9.3,8.8c-3,0-5.8-1.8-8.5-5.3l-50-67.1H532v62.3a9.946,9.946,0,0,1-9.8,10.1c-5.8,0-9.8-4.5-9.8-10.1V13.2a9.987,9.987,0,0,1,10-10.1h48.2c31.7,0,53,19.3,53,48,0,22.1-12.6,38.7-32.9,45.2l43.5,59c2,2.6,3.3,5.1,3.3,7.6Zm161.5,0a8.922,8.922,0,0,1-9,8.8c-2.5,0-5-1.3-7.8-4L703.1,86.8a10.3,10.3,0,0,1-3-6.8c0-2.5,1.3-4.8,3.3-7L775.2,4.4c3-2.8,5-4,7.5-4a8.922,8.922,0,0,1,9,8.8c0,2.8-1.3,5-4.3,7.8L721.7,80l73.6,75.6C798,157.9,799,159.9,799,162.9ZM694.5,10.7V161.4c0,5.8-4.3,10.3-9.8,10.3-5.8,0-9.8-4.5-9.8-10.3V10.7c0-5.8,4-10.3,9.8-10.3C690.3.4,694.5,4.9,694.5,10.7ZM474.4,155.5,410.9,6.8c-2-4.5-5-6.8-9.3-6.8s-7.3,2.3-9.3,6.8L328.7,155.5a17.208,17.208,0,0,0-1.5,6.3,9.694,9.694,0,0,0,9.5,9.5c4.3,0,7.5-2.5,9.3-6.5L358.1,136l.4-1.1,7.3-17.6,35.7-87.9,34.7,87.9,7.5,17.6L457,164.8c2,4,5,6.5,9.5,6.5a9.835,9.835,0,0,0,9.5-9.5,11.076,11.076,0,0,0-1.6-6.3" transform="translate(-0.4)" fill="#1239d7" fill-rule="evenodd"/>
</svg>
